<svg width="20" height="21" viewBox="0 0 20 21" fill="none" xmlns="http://www.w3.org/2000/svg">
<path fill-rule="evenodd" clip-rule="evenodd" d="M9.99976 13.8333C9.80976 13.8333 9.62059 13.7691 9.46643 13.6399L4.46643 9.47328C4.11309 9.17911 4.06476 8.65328 4.35976 8.29995C4.65393 7.94661 5.17893 7.89911 5.53309 8.19328L10.0089 11.9233L14.4773 8.32745C14.8356 8.03911 15.3606 8.09578 15.6489 8.45411C15.9373 8.81245 15.8806 9.33661 15.5223 9.62578L10.5223 13.6491C10.3698 13.7716 10.1848 13.8333 9.99976 13.8333Z" fill="white"/>
<mask id="mask0" mask-type="alpha" maskUnits="userSpaceOnUse" x="4" y="8" width="12" height="6">
<path fill-rule="evenodd" clip-rule="evenodd" d="M9.99976 13.8333C9.80976 13.8333 9.62059 13.7691 9.46643 13.6399L4.46643 9.47328C4.11309 9.17911 4.06476 8.65328 4.35976 8.29995C4.65393 7.94661 5.17893 7.89911 5.53309 8.19328L10.0089 11.9233L14.4773 8.32745C14.8356 8.03911 15.3606 8.09578 15.6489 8.45411C15.9373 8.81245 15.8806 9.33661 15.5223 9.62578L10.5223 13.6491C10.3698 13.7716 10.1848 13.8333 9.99976 13.8333Z" fill="white"/>
</mask>
<g mask="url(#mask0)">
<rect y="0.5" width="20" height="20" fill="white"/>
</g>
</svg>
